<!DOCTYPE html PUBLIC "-//W3C//DTD HTML 4.01 Transitional//EN">
<html>
<head>

  <meta http-equiv="content-type" content="text/html; charset=ISO-8859-1">
  <title>Cuesheets</title>


  <style title="" media="" type="text/css">
.head { margin: 0px;
padding: 0px;
top: 0px;
left: 0px;
right: 0px;
bottom: 0px;
}
body { font-family: Verdana;
font-size: 12px;
}
td { font-family: Verdana;
font-size: 12px;
}
  </style>
</head>


<body>

<table style="text-align: left; width: 100%;" border="0" cellpadding="2" cellspacing="2">

  <tbody>

    <tr>

      <td style="width: 50px;"><img style="width: 47px; height: 27px;" src="hilfe.png" alt=""></td>

      <td>
      <h2 class="head">Cuesheets</h2>

      </td>

    </tr>

  </tbody>
</table>

<hr style="width: 100%; height: 2px;">
<br>

Nemp unterst&uuml;tzt Cuesheets. Das sind kleine Dateien mit
Sprungmarken f&uuml;r eine lange Audiodatei. Cuesheets kommen
h&auml;ufig bei Non-Stop-Mixen zum Einsatz, um eine unterbrechungsfreie
Wiedergabe zu garantieren und trotzdem einzelne Titel anw&auml;hlen zu
k&ouml;nnen.<br>
<br>
Eine Cuesheet Datei k&ouml;nnte so aussehen:<br>
<br>
<div style="margin-left: 40px;"><small><span style="font-family: monospace;">PERFORMER "VA"</span></small><br style="font-family: monospace;">
<small><span style="font-family: monospace;">TITLE "Deep Dance 2004 Vol. 3"</span></small><br style="font-family: monospace;">
<small><span style="font-family: monospace;">FILE "01_VA_-_Deep_Dance_2004_Vol._3_CD_One-MOD.mp3" MP3</span></small><br style="font-family: monospace;">
<small><span style="font-family: monospace;">&nbsp; TRACK 01 AUDIO</span></small><br style="font-family: monospace;">
<small><span style="font-family: monospace;">&nbsp;&nbsp;&nbsp; TITLE "Intro"</span></small><br style="font-family: monospace;">
<small><span style="font-family: monospace;">&nbsp;&nbsp;&nbsp; PERFORMER "DJ Deep"</span></small><br style="font-family: monospace;">
<small><span style="font-family: monospace;">&nbsp;&nbsp;&nbsp; INDEX 01 00:00:00</span></small><br style="font-family: monospace;">
<small><span style="font-family: monospace;">&nbsp; TRACK 02 AUDIO</span></small><br style="font-family: monospace;">
<small><span style="font-family: monospace;">&nbsp;&nbsp;&nbsp; TITLE "Dragostea Din Tei"</span></small><br style="font-family: monospace;">
<small><span style="font-family: monospace;">&nbsp;&nbsp;&nbsp; PERFORMER "O-Zone"</span></small><br style="font-family: monospace;">
<small><span style="font-family: monospace;">&nbsp;&nbsp;&nbsp; INDEX 00 00:40:31</span></small><br style="font-family: monospace;">
<small><span style="font-family: monospace;">&nbsp;&nbsp;&nbsp; INDEX 01 00:40:32</span></small><br style="font-family: monospace;">
<small><span style="font-family: monospace;">&nbsp; TRACK 03 AUDIO</span></small><br style="font-family: monospace;">
<small><span style="font-family: monospace;">&nbsp;&nbsp;&nbsp; TITLE "F**k It"</span></small><br style="font-family: monospace;">
<small><span style="font-family: monospace;">&nbsp;&nbsp;&nbsp; PERFORMER "Florida Inc."</span></small><br style="font-family: monospace;">
<small><span style="font-family: monospace;">&nbsp;&nbsp;&nbsp; INDEX 00 03:21:42</span></small><br style="font-family: monospace;">
<small><span style="font-family: monospace;">&nbsp;&nbsp;&nbsp; INDEX 01 03:21:43<br>
(usw...)<br style="font-family: monospace;">
</span></small><small><span style="font-family: monospace;"></span></small></div>
<br>
Wenn zu einer mp3-Datei "mein-langes-Lied.mp3" eine gleichbenannte
"mein-langes-Lied.cue" existiert, wird diese Datei automatisch
ausgewertet. In der Playlist erscheint dann vor dem langen Titel ein
[+], wor&uuml;ber Sie die einzelnen Eintr&auml;ge des Cuesheets ein-
und ausklappen k&ouml;nnen. Die Positionen der Titel in der Datei
werden dann mit "@&lt;zeit&gt;" gekennzeichnet.<br>
<br>
<div style="text-align: center;"><img style="width: 345px; height: 350px;" alt="cuesheet" src="cue.png"><br>
</div>
<br>
</body>
</html>
